<?xml version="1.0" encoding="utf-8" standalone="no"?>
<!DOCTYPE svg PUBLIC "-//W3C//DTD SVG 1.1//EN"
  "http://www.w3.org/Graphics/SVG/1.1/DTD/svg11.dtd">
<!-- Created with matplotlib (https://matplotlib.org/) -->
<svg height="646.261562pt" version="1.1" viewBox="0 0 778.576019 646.261562" width="778.576019pt" xmlns="http://www.w3.org/2000/svg" xmlns:xlink="http://www.w3.org/1999/xlink">
 <defs>
  <style type="text/css">
*{stroke-linecap:butt;stroke-linejoin:round;white-space:pre;}
  </style>
 </defs>
 <g id="figure_1">
  <g id="patch_1">
   <path d="M 0 646.261562 
L 778.576019 646.261562 
L 778.576019 0 
L 0 0 
z
" style="fill:#ffffff;"/>
  </g>
  <g id="axes_1">
   <g id="patch_2">
    <path d="M 199.481875 608.4 
L 757.481875 608.4 
L 757.481875 64.8 
L 199.481875 64.8 
z
" style="fill:#ffffff;"/>
   </g>
   <g id="patch_3">
    <path clip-path="url(#pe4b2984b5d)" d="M 199.481875 593.3 
L 229.93905 593.3 
L 229.93905 563.1 
L 199.481875 563.1 
z
" style="fill:#4bc6b9;"/>
   </g>
   <g id="patch_4">
    <path clip-path="url(#pe4b2984b5d)" d="M 199.481875 532.9 
L 233.377763 532.9 
L 233.377763 502.7 
L 199.481875 502.7 
z
" style="fill:#73c1c6;"/>
   </g>
   <g id="patch_5">
    <path clip-path="url(#pe4b2984b5d)" d="M 199.481875 472.5 
L 240.844683 472.5 
L 240.844683 442.3 
L 199.481875 442.3 
z
" style="fill:#96c3ce;"/>
   </g>
   <g id="patch_6">
    <path clip-path="url(#pe4b2984b5d)" d="M 199.481875 412.1 
L 288.004179 412.1 
L 288.004179 381.9 
L 199.481875 381.9 
z
" style="fill:#a79ab2;"/>
   </g>
   <g id="patch_7">
    <path clip-path="url(#pe4b2984b5d)" d="M 199.481875 351.7 
L 288.397175 351.7 
L 288.397175 321.5 
L 199.481875 321.5 
z
" style="fill:#b57ba6;"/>
   </g>
   <g id="patch_8">
    <path clip-path="url(#pe4b2984b5d)" d="M 199.481875 291.3 
L 325.044033 291.3 
L 325.044033 261.1 
L 199.481875 261.1 
z
" style="fill:#4bc6b9;"/>
   </g>
   <g id="patch_9">
    <path clip-path="url(#pe4b2984b5d)" d="M 199.481875 230.9 
L 375.052749 230.9 
L 375.052749 200.7 
L 199.481875 200.7 
z
" style="fill:#73c1c6;"/>
   </g>
   <g id="patch_10">
    <path clip-path="url(#pe4b2984b5d)" d="M 199.481875 170.5 
L 521.541934 170.5 
L 521.541934 140.3 
L 199.481875 140.3 
z
" style="fill:#96c3ce;"/>
   </g>
   <g id="patch_11">
    <path clip-path="url(#pe4b2984b5d)" d="M 199.481875 110.1 
L 730.910446 110.1 
L 730.910446 79.9 
L 199.481875 79.9 
z
" style="fill:#a79ab2;"/>
   </g>
   <g id="matplotlib.axis_1">
    <g id="xtick_1">
     <g id="line2d_1">
      <defs>
       <path d="M 0 0 
L 0 3.5 
" id="m1ebe5e8da2" style="stroke:#000000;stroke-width:0.8;"/>
      </defs>
      <g>
       <use style="stroke:#000000;stroke-width:0.8;" x="199.481875" xlink:href="#m1ebe5e8da2" y="608.4"/>
      </g>
     </g>
     <g id="text_1">
      <!-- 0 -->
      <defs>
       <path d="M 4.15625 35.296875 
Q 4.15625 48 6.765625 55.734375 
Q 9.375 63.484375 14.515625 67.671875 
Q 19.671875 71.875 27.484375 71.875 
Q 33.25 71.875 37.59375 69.546875 
Q 41.9375 67.234375 44.765625 62.859375 
Q 47.609375 58.5 49.21875 52.21875 
Q 50.828125 45.953125 50.828125 35.296875 
Q 50.828125 22.703125 48.234375 14.96875 
Q 45.65625 7.234375 40.5 3 
Q 35.359375 -1.21875 27.484375 -1.21875 
Q 17.140625 -1.21875 11.234375 6.203125 
Q 4.15625 15.140625 4.15625 35.296875 
z
M 13.1875 35.296875 
Q 13.1875 17.671875 17.3125 11.828125 
Q 21.4375 6 27.484375 6 
Q 33.546875 6 37.671875 11.859375 
Q 41.796875 17.71875 41.796875 35.296875 
Q 41.796875 52.984375 37.671875 58.78125 
Q 33.546875 64.59375 27.390625 64.59375 
Q 21.34375 64.59375 17.71875 59.46875 
Q 13.1875 52.9375 13.1875 35.296875 
z
" id="ArialMT-48"/>
      </defs>
      <g transform="translate(194.477031 628.284062)scale(0.18 -0.18)">
       <use xlink:href="#ArialMT-48"/>
      </g>
     </g>
    </g>
    <g id="xtick_2">
     <g id="line2d_2">
      <g>
       <use style="stroke:#000000;stroke-width:0.8;" x="297.730825" xlink:href="#m1ebe5e8da2" y="608.4"/>
      </g>
     </g>
     <g id="text_2">
      <!-- 1000 -->
      <defs>
       <path d="M 37.25 0 
L 28.46875 0 
L 28.46875 56 
Q 25.296875 52.984375 20.140625 49.953125 
Q 14.984375 46.921875 10.890625 45.40625 
L 10.890625 53.90625 
Q 18.265625 57.375 23.78125 62.296875 
Q 29.296875 67.234375 31.59375 71.875 
L 37.25 71.875 
z
" id="ArialMT-49"/>
      </defs>
      <g transform="translate(277.71145 628.284062)scale(0.18 -0.18)">
       <use xlink:href="#ArialMT-49"/>
       <use x="55.615234" xlink:href="#ArialMT-48"/>
       <use x="111.230469" xlink:href="#ArialMT-48"/>
       <use x="166.845703" xlink:href="#ArialMT-48"/>
      </g>
     </g>
    </g>
    <g id="xtick_3">
     <g id="line2d_3">
      <g>
       <use style="stroke:#000000;stroke-width:0.8;" x="395.979775" xlink:href="#m1ebe5e8da2" y="608.4"/>
      </g>
     </g>
     <g id="text_3">
      <!-- 2000 -->
      <defs>
       <path d="M 50.34375 8.453125 
L 50.34375 0 
L 3.03125 0 
Q 2.9375 3.171875 4.046875 6.109375 
Q 5.859375 10.9375 9.828125 15.625 
Q 13.8125 20.3125 21.34375 26.46875 
Q 33.015625 36.03125 37.109375 41.625 
Q 41.21875 47.21875 41.21875 52.203125 
Q 41.21875 57.421875 37.46875 61 
Q 33.734375 64.59375 27.734375 64.59375 
Q 21.390625 64.59375 17.578125 60.78125 
Q 13.765625 56.984375 13.71875 50.25 
L 4.6875 51.171875 
Q 5.609375 61.28125 11.65625 66.578125 
Q 17.71875 71.875 27.9375 71.875 
Q 38.234375 71.875 44.234375 66.15625 
Q 50.25 60.453125 50.25 52 
Q 50.25 47.703125 48.484375 43.546875 
Q 46.734375 39.40625 42.65625 34.8125 
Q 38.578125 30.21875 29.109375 22.21875 
Q 21.1875 15.578125 18.9375 13.203125 
Q 16.703125 10.84375 15.234375 8.453125 
z
" id="ArialMT-50"/>
      </defs>
      <g transform="translate(375.9604 628.284062)scale(0.18 -0.18)">
       <use xlink:href="#ArialMT-50"/>
       <use x="55.615234" xlink:href="#ArialMT-48"/>
       <use x="111.230469" xlink:href="#ArialMT-48"/>
       <use x="166.845703" xlink:href="#ArialMT-48"/>
      </g>
     </g>
    </g>
    <g id="xtick_4">
     <g id="line2d_4">
      <g>
       <use style="stroke:#000000;stroke-width:0.8;" x="494.228725" xlink:href="#m1ebe5e8da2" y="608.4"/>
      </g>
     </g>
     <g id="text_4">
      <!-- 3000 -->
      <defs>
       <path d="M 4.203125 18.890625 
L 12.984375 20.0625 
Q 14.5 12.59375 18.140625 9.296875 
Q 21.78125 6 27 6 
Q 33.203125 6 37.46875 10.296875 
Q 41.75 14.59375 41.75 20.953125 
Q 41.75 27 37.796875 30.921875 
Q 33.84375 34.859375 27.734375 34.859375 
Q 25.25 34.859375 21.53125 33.890625 
L 22.515625 41.609375 
Q 23.390625 41.5 23.921875 41.5 
Q 29.546875 41.5 34.03125 44.421875 
Q 38.53125 47.359375 38.53125 53.46875 
Q 38.53125 58.296875 35.25 61.46875 
Q 31.984375 64.65625 26.8125 64.65625 
Q 21.6875 64.65625 18.265625 61.421875 
Q 14.84375 58.203125 13.875 51.765625 
L 5.078125 53.328125 
Q 6.6875 62.15625 12.390625 67.015625 
Q 18.109375 71.875 26.609375 71.875 
Q 32.46875 71.875 37.390625 69.359375 
Q 42.328125 66.84375 44.9375 62.5 
Q 47.5625 58.15625 47.5625 53.265625 
Q 47.5625 48.640625 45.0625 44.828125 
Q 42.578125 41.015625 37.703125 38.765625 
Q 44.046875 37.3125 47.5625 32.6875 
Q 51.078125 28.078125 51.078125 21.140625 
Q 51.078125 11.765625 44.234375 5.25 
Q 37.40625 -1.265625 26.953125 -1.265625 
Q 17.53125 -1.265625 11.296875 4.34375 
Q 5.078125 9.96875 4.203125 18.890625 
z
" id="ArialMT-51"/>
      </defs>
      <g transform="translate(474.20935 628.284062)scale(0.18 -0.18)">
       <use xlink:href="#ArialMT-51"/>
       <use x="55.615234" xlink:href="#ArialMT-48"/>
       <use x="111.230469" xlink:href="#ArialMT-48"/>
       <use x="166.845703" xlink:href="#ArialMT-48"/>
      </g>
     </g>
    </g>
    <g id="xtick_5">
     <g id="line2d_5">
      <g>
       <use style="stroke:#000000;stroke-width:0.8;" x="592.477676" xlink:href="#m1ebe5e8da2" y="608.4"/>
      </g>
     </g>
     <g id="text_5">
      <!-- 4000 -->
      <defs>
       <path d="M 32.328125 0 
L 32.328125 17.140625 
L 1.265625 17.140625 
L 1.265625 25.203125 
L 33.9375 71.578125 
L 41.109375 71.578125 
L 41.109375 25.203125 
L 50.78125 25.203125 
L 50.78125 17.140625 
L 41.109375 17.140625 
L 41.109375 0 
z
M 32.328125 25.203125 
L 32.328125 57.46875 
L 9.90625 25.203125 
z
" id="ArialMT-52"/>
      </defs>
      <g transform="translate(572.458301 628.284062)scale(0.18 -0.18)">
       <use xlink:href="#ArialMT-52"/>
       <use x="55.615234" xlink:href="#ArialMT-48"/>
       <use x="111.230469" xlink:href="#ArialMT-48"/>
       <use x="166.845703" xlink:href="#ArialMT-48"/>
      </g>
     </g>
    </g>
    <g id="xtick_6">
     <g id="line2d_6">
      <g>
       <use style="stroke:#000000;stroke-width:0.8;" x="690.726626" xlink:href="#m1ebe5e8da2" y="608.4"/>
      </g>
     </g>
     <g id="text_6">
      <!-- 5000 -->
      <defs>
       <path d="M 4.15625 18.75 
L 13.375 19.53125 
Q 14.40625 12.796875 18.140625 9.390625 
Q 21.875 6 27.15625 6 
Q 33.5 6 37.890625 10.78125 
Q 42.28125 15.578125 42.28125 23.484375 
Q 42.28125 31 38.0625 35.34375 
Q 33.84375 39.703125 27 39.703125 
Q 22.75 39.703125 19.328125 37.765625 
Q 15.921875 35.84375 13.96875 32.765625 
L 5.71875 33.84375 
L 12.640625 70.609375 
L 48.25 70.609375 
L 48.25 62.203125 
L 19.671875 62.203125 
L 15.828125 42.96875 
Q 22.265625 47.46875 29.34375 47.46875 
Q 38.71875 47.46875 45.15625 40.96875 
Q 51.609375 34.46875 51.609375 24.265625 
Q 51.609375 14.546875 45.953125 7.46875 
Q 39.0625 -1.21875 27.15625 -1.21875 
Q 17.390625 -1.21875 11.203125 4.25 
Q 5.03125 9.71875 4.15625 18.75 
z
" id="ArialMT-53"/>
      </defs>
      <g transform="translate(670.707251 628.284062)scale(0.18 -0.18)">
       <use xlink:href="#ArialMT-53"/>
       <use x="55.615234" xlink:href="#ArialMT-48"/>
       <use x="111.230469" xlink:href="#ArialMT-48"/>
       <use x="166.845703" xlink:href="#ArialMT-48"/>
      </g>
     </g>
    </g>
   </g>
   <g id="matplotlib.axis_2">
    <g id="ytick_1">
     <g id="line2d_7">
      <path clip-path="url(#pe4b2984b5d)" d="M 199.481875 578.2 
L 757.481875 578.2 
" style="fill:none;stroke:#b0b0b0;stroke-linecap:square;stroke-width:0.8;"/>
     </g>
     <g id="line2d_8">
      <defs>
       <path d="M 0 0 
L -3.5 0 
" id="m21d7817893" style="stroke:#000000;stroke-width:0.8;"/>
      </defs>
      <g>
       <use style="stroke:#000000;stroke-width:0.8;" x="199.481875" xlink:href="#m21d7817893" y="578.2"/>
      </g>
     </g>
     <g id="text_7">
      <!-- emacs meetups -->
      <defs>
       <path d="M 42.09375 16.703125 
L 51.171875 15.578125 
Q 49.03125 7.625 43.21875 3.21875 
Q 37.40625 -1.171875 28.375 -1.171875 
Q 17 -1.171875 10.328125 5.828125 
Q 3.65625 12.84375 3.65625 25.484375 
Q 3.65625 38.578125 10.390625 45.796875 
Q 17.140625 53.03125 27.875 53.03125 
Q 38.28125 53.03125 44.875 45.953125 
Q 51.46875 38.875 51.46875 26.03125 
Q 51.46875 25.25 51.421875 23.6875 
L 12.75 23.6875 
Q 13.234375 15.140625 17.578125 10.59375 
Q 21.921875 6.0625 28.421875 6.0625 
Q 33.25 6.0625 36.671875 8.59375 
Q 40.09375 11.140625 42.09375 16.703125 
z
M 13.234375 30.90625 
L 42.1875 30.90625 
Q 41.609375 37.453125 38.875 40.71875 
Q 34.671875 45.796875 27.984375 45.796875 
Q 21.921875 45.796875 17.796875 41.75 
Q 13.671875 37.703125 13.234375 30.90625 
z
" id="ArialMT-101"/>
       <path d="M 6.59375 0 
L 6.59375 51.859375 
L 14.453125 51.859375 
L 14.453125 44.578125 
Q 16.890625 48.390625 20.9375 50.703125 
Q 25 53.03125 30.171875 53.03125 
Q 35.9375 53.03125 39.625 50.640625 
Q 43.3125 48.25 44.828125 43.953125 
Q 50.984375 53.03125 60.84375 53.03125 
Q 68.5625 53.03125 72.703125 48.75 
Q 76.859375 44.484375 76.859375 35.59375 
L 76.859375 0 
L 68.109375 0 
L 68.109375 32.671875 
Q 68.109375 37.9375 67.25 40.25 
Q 66.40625 42.578125 64.15625 43.984375 
Q 61.921875 45.40625 58.890625 45.40625 
Q 53.421875 45.40625 49.796875 41.765625 
Q 46.1875 38.140625 46.1875 30.125 
L 46.1875 0 
L 37.40625 0 
L 37.40625 33.6875 
Q 37.40625 39.546875 35.25 42.46875 
Q 33.109375 45.40625 28.21875 45.40625 
Q 24.515625 45.40625 21.359375 43.453125 
Q 18.21875 41.5 16.796875 37.734375 
Q 15.375 33.984375 15.375 26.90625 
L 15.375 0 
z
" id="ArialMT-109"/>
       <path d="M 40.4375 6.390625 
Q 35.546875 2.25 31.03125 0.53125 
Q 26.515625 -1.171875 21.34375 -1.171875 
Q 12.796875 -1.171875 8.203125 3 
Q 3.609375 7.171875 3.609375 13.671875 
Q 3.609375 17.484375 5.34375 20.625 
Q 7.078125 23.78125 9.890625 25.6875 
Q 12.703125 27.59375 16.21875 28.5625 
Q 18.796875 29.25 24.03125 29.890625 
Q 34.671875 31.15625 39.703125 32.90625 
Q 39.75 34.71875 39.75 35.203125 
Q 39.75 40.578125 37.25 42.78125 
Q 33.890625 45.75 27.25 45.75 
Q 21.046875 45.75 18.09375 43.578125 
Q 15.140625 41.40625 13.71875 35.890625 
L 5.125 37.0625 
Q 6.296875 42.578125 8.984375 45.96875 
Q 11.671875 49.359375 16.75 51.1875 
Q 21.828125 53.03125 28.515625 53.03125 
Q 35.15625 53.03125 39.296875 51.46875 
Q 43.453125 49.90625 45.40625 47.53125 
Q 47.359375 45.171875 48.140625 41.546875 
Q 48.578125 39.3125 48.578125 33.453125 
L 48.578125 21.734375 
Q 48.578125 9.46875 49.140625 6.21875 
Q 49.703125 2.984375 51.375 0 
L 42.1875 0 
Q 40.828125 2.734375 40.4375 6.390625 
z
M 39.703125 26.03125 
Q 34.90625 24.078125 25.34375 22.703125 
Q 19.921875 21.921875 17.671875 20.9375 
Q 15.4375 19.96875 14.203125 18.09375 
Q 12.984375 16.21875 12.984375 13.921875 
Q 12.984375 10.40625 15.640625 8.0625 
Q 18.3125 5.71875 23.4375 5.71875 
Q 28.515625 5.71875 32.46875 7.9375 
Q 36.421875 10.15625 38.28125 14.015625 
Q 39.703125 17 39.703125 22.796875 
z
" id="ArialMT-97"/>
       <path d="M 40.4375 19 
L 49.078125 17.875 
Q 47.65625 8.9375 41.8125 3.875 
Q 35.984375 -1.171875 27.484375 -1.171875 
Q 16.84375 -1.171875 10.375 5.78125 
Q 3.90625 12.75 3.90625 25.734375 
Q 3.90625 34.125 6.6875 40.421875 
Q 9.46875 46.734375 15.15625 49.875 
Q 20.84375 53.03125 27.546875 53.03125 
Q 35.984375 53.03125 41.359375 48.75 
Q 46.734375 44.484375 48.25 36.625 
L 39.703125 35.296875 
Q 38.484375 40.53125 35.375 43.15625 
Q 32.28125 45.796875 27.875 45.796875 
Q 21.234375 45.796875 17.078125 41.03125 
Q 12.9375 36.28125 12.9375 25.984375 
Q 12.9375 15.53125 16.9375 10.796875 
Q 20.953125 6.0625 27.390625 6.0625 
Q 32.5625 6.0625 36.03125 9.234375 
Q 39.5 12.40625 40.4375 19 
z
" id="ArialMT-99"/>
       <path d="M 3.078125 15.484375 
L 11.765625 16.84375 
Q 12.5 11.625 15.84375 8.84375 
Q 19.1875 6.0625 25.203125 6.0625 
Q 31.25 6.0625 34.171875 8.515625 
Q 37.109375 10.984375 37.109375 14.3125 
Q 37.109375 17.28125 34.515625 19 
Q 32.71875 20.171875 25.53125 21.96875 
Q 15.875 24.421875 12.140625 26.203125 
Q 8.40625 27.984375 6.46875 31.125 
Q 4.546875 34.28125 4.546875 38.09375 
Q 4.546875 41.546875 6.125 44.5 
Q 7.71875 47.46875 10.453125 49.421875 
Q 12.5 50.921875 16.03125 51.96875 
Q 19.578125 53.03125 23.640625 53.03125 
Q 29.734375 53.03125 34.34375 51.265625 
Q 38.96875 49.515625 41.15625 46.5 
Q 43.359375 43.5 44.1875 38.484375 
L 35.59375 37.3125 
Q 35.015625 41.3125 32.203125 43.546875 
Q 29.390625 45.796875 24.265625 45.796875 
Q 18.21875 45.796875 15.625 43.796875 
Q 13.03125 41.796875 13.03125 39.109375 
Q 13.03125 37.40625 14.109375 36.03125 
Q 15.1875 34.625 17.484375 33.6875 
Q 18.796875 33.203125 25.25 31.453125 
Q 34.578125 28.953125 38.25 27.359375 
Q 41.9375 25.78125 44.03125 22.75 
Q 46.140625 19.734375 46.140625 15.234375 
Q 46.140625 10.84375 43.578125 6.953125 
Q 41.015625 3.078125 36.171875 0.953125 
Q 31.34375 -1.171875 25.25 -1.171875 
Q 15.140625 -1.171875 9.84375 3.03125 
Q 4.546875 7.234375 3.078125 15.484375 
z
" id="ArialMT-115"/>
       <path id="ArialMT-32"/>
       <path d="M 25.78125 7.859375 
L 27.046875 0.09375 
Q 23.34375 -0.6875 20.40625 -0.6875 
Q 15.625 -0.6875 12.984375 0.828125 
Q 10.359375 2.34375 9.28125 4.8125 
Q 8.203125 7.28125 8.203125 15.1875 
L 8.203125 45.015625 
L 1.765625 45.015625 
L 1.765625 51.859375 
L 8.203125 51.859375 
L 8.203125 64.703125 
L 16.9375 69.96875 
L 16.9375 51.859375 
L 25.78125 51.859375 
L 25.78125 45.015625 
L 16.9375 45.015625 
L 16.9375 14.703125 
Q 16.9375 10.9375 17.40625 9.859375 
Q 17.875 8.796875 18.921875 8.15625 
Q 19.96875 7.515625 21.921875 7.515625 
Q 23.390625 7.515625 25.78125 7.859375 
z
" id="ArialMT-116"/>
       <path d="M 40.578125 0 
L 40.578125 7.625 
Q 34.515625 -1.171875 24.125 -1.171875 
Q 19.53125 -1.171875 15.546875 0.578125 
Q 11.578125 2.34375 9.640625 5 
Q 7.71875 7.671875 6.9375 11.53125 
Q 6.390625 14.109375 6.390625 19.734375 
L 6.390625 51.859375 
L 15.1875 51.859375 
L 15.1875 23.09375 
Q 15.1875 16.21875 15.71875 13.8125 
Q 16.546875 10.359375 19.234375 8.375 
Q 21.921875 6.390625 25.875 6.390625 
Q 29.828125 6.390625 33.296875 8.421875 
Q 36.765625 10.453125 38.203125 13.9375 
Q 39.65625 17.4375 39.65625 24.078125 
L 39.65625 51.859375 
L 48.4375 51.859375 
L 48.4375 0 
z
" id="ArialMT-117"/>
       <path d="M 6.59375 -19.875 
L 6.59375 51.859375 
L 14.59375 51.859375 
L 14.59375 45.125 
Q 17.4375 49.078125 21 51.046875 
Q 24.5625 53.03125 29.640625 53.03125 
Q 36.28125 53.03125 41.359375 49.609375 
Q 46.4375 46.1875 49.015625 39.953125 
Q 51.609375 33.734375 51.609375 26.3125 
Q 51.609375 18.359375 48.75 11.984375 
Q 45.90625 5.609375 40.453125 2.21875 
Q 35.015625 -1.171875 29 -1.171875 
Q 24.609375 -1.171875 21.109375 0.6875 
Q 17.625 2.546875 15.375 5.375 
L 15.375 -19.875 
z
M 14.546875 25.640625 
Q 14.546875 15.625 18.59375 10.84375 
Q 22.65625 6.0625 28.421875 6.0625 
Q 34.28125 6.0625 38.453125 11.015625 
Q 42.625 15.96875 42.625 26.375 
Q 42.625 36.28125 38.546875 41.203125 
Q 34.46875 46.140625 28.8125 46.140625 
Q 23.1875 46.140625 18.859375 40.890625 
Q 14.546875 35.640625 14.546875 25.640625 
z
" id="ArialMT-112"/>
      </defs>
      <g transform="translate(65.435625 584.642031)scale(0.18 -0.18)">
       <use xlink:href="#ArialMT-101"/>
       <use x="55.615234" xlink:href="#ArialMT-109"/>
       <use x="138.916016" xlink:href="#ArialMT-97"/>
       <use x="194.53125" xlink:href="#ArialMT-99"/>
       <use x="244.53125" xlink:href="#ArialMT-115"/>
       <use x="294.53125" xlink:href="#ArialMT-32"/>
       <use x="322.314453" xlink:href="#ArialMT-109"/>
       <use x="405.615234" xlink:href="#ArialMT-101"/>
       <use x="461.230469" xlink:href="#ArialMT-101"/>
       <use x="516.845703" xlink:href="#ArialMT-116"/>
       <use x="544.628906" xlink:href="#ArialMT-117"/>
       <use x="600.244141" xlink:href="#ArialMT-112"/>
       <use x="655.859375" xlink:href="#ArialMT-115"/>
      </g>
     </g>
    </g>
    <g id="ytick_2">
     <g id="line2d_9">
      <path clip-path="url(#pe4b2984b5d)" d="M 199.481875 517.8 
L 757.481875 517.8 
" style="fill:none;stroke:#b0b0b0;stroke-linecap:square;stroke-width:0.8;"/>
     </g>
     <g id="line2d_10">
      <g>
       <use style="stroke:#000000;stroke-width:0.8;" x="199.481875" xlink:href="#m21d7817893" y="517.8"/>
      </g>
     </g>
     <g id="text_8">
      <!-- telegram group -->
      <defs>
       <path d="M 6.390625 0 
L 6.390625 71.578125 
L 15.1875 71.578125 
L 15.1875 0 
z
" id="ArialMT-108"/>
       <path d="M 4.984375 -4.296875 
L 13.53125 -5.5625 
Q 14.0625 -9.515625 16.5 -11.328125 
Q 19.78125 -13.765625 25.4375 -13.765625 
Q 31.546875 -13.765625 34.859375 -11.328125 
Q 38.1875 -8.890625 39.359375 -4.5 
Q 40.046875 -1.8125 39.984375 6.78125 
Q 34.234375 0 25.640625 0 
Q 14.9375 0 9.078125 7.71875 
Q 3.21875 15.4375 3.21875 26.21875 
Q 3.21875 33.640625 5.90625 39.90625 
Q 8.59375 46.1875 13.6875 49.609375 
Q 18.796875 53.03125 25.6875 53.03125 
Q 34.859375 53.03125 40.828125 45.609375 
L 40.828125 51.859375 
L 48.921875 51.859375 
L 48.921875 7.03125 
Q 48.921875 -5.078125 46.453125 -10.125 
Q 44 -15.1875 38.640625 -18.109375 
Q 33.296875 -21.046875 25.484375 -21.046875 
Q 16.21875 -21.046875 10.5 -16.875 
Q 4.78125 -12.703125 4.984375 -4.296875 
z
M 12.25 26.859375 
Q 12.25 16.65625 16.296875 11.96875 
Q 20.359375 7.28125 26.46875 7.28125 
Q 32.515625 7.28125 36.609375 11.9375 
Q 40.71875 16.609375 40.71875 26.5625 
Q 40.71875 36.078125 36.5 40.90625 
Q 32.28125 45.75 26.3125 45.75 
Q 20.453125 45.75 16.34375 40.984375 
Q 12.25 36.234375 12.25 26.859375 
z
" id="ArialMT-103"/>
       <path d="M 6.5 0 
L 6.5 51.859375 
L 14.40625 51.859375 
L 14.40625 44 
Q 17.4375 49.515625 20 51.265625 
Q 22.5625 53.03125 25.640625 53.03125 
Q 30.078125 53.03125 34.671875 50.203125 
L 31.640625 42.046875 
Q 28.421875 43.953125 25.203125 43.953125 
Q 22.3125 43.953125 20.015625 42.21875 
Q 17.71875 40.484375 16.75 37.40625 
Q 15.28125 32.71875 15.28125 27.15625 
L 15.28125 0 
z
" id="ArialMT-114"/>
       <path d="M 3.328125 25.921875 
Q 3.328125 40.328125 11.328125 47.265625 
Q 18.015625 53.03125 27.640625 53.03125 
Q 38.328125 53.03125 45.109375 46.015625 
Q 51.90625 39.015625 51.90625 26.65625 
Q 51.90625 16.65625 48.90625 10.90625 
Q 45.90625 5.171875 40.15625 2 
Q 34.421875 -1.171875 27.640625 -1.171875 
Q 16.75 -1.171875 10.03125 5.8125 
Q 3.328125 12.796875 3.328125 25.921875 
z
M 12.359375 25.921875 
Q 12.359375 15.96875 16.703125 11.015625 
Q 21.046875 6.0625 27.640625 6.0625 
Q 34.1875 6.0625 38.53125 11.03125 
Q 42.875 16.015625 42.875 26.21875 
Q 42.875 35.84375 38.5 40.796875 
Q 34.125 45.75 27.640625 45.75 
Q 21.046875 45.75 16.703125 40.8125 
Q 12.359375 35.890625 12.359375 25.921875 
z
" id="ArialMT-111"/>
      </defs>
      <g transform="translate(71.423438 524.242031)scale(0.18 -0.18)">
       <use xlink:href="#ArialMT-116"/>
       <use x="27.783203" xlink:href="#ArialMT-101"/>
       <use x="83.398438" xlink:href="#ArialMT-108"/>
       <use x="105.615234" xlink:href="#ArialMT-101"/>
       <use x="161.230469" xlink:href="#ArialMT-103"/>
       <use x="216.845703" xlink:href="#ArialMT-114"/>
       <use x="250.146484" xlink:href="#ArialMT-97"/>
       <use x="305.761719" xlink:href="#ArialMT-109"/>
       <use x="389.0625" xlink:href="#ArialMT-32"/>
       <use x="416.845703" xlink:href="#ArialMT-103"/>
       <use x="472.460938" xlink:href="#ArialMT-114"/>
       <use x="505.761719" xlink:href="#ArialMT-111"/>
       <use x="561.376953" xlink:href="#ArialMT-117"/>
       <use x="616.992188" xlink:href="#ArialMT-112"/>
      </g>
     </g>
    </g>
    <g id="ytick_3">
     <g id="line2d_11">
      <path clip-path="url(#pe4b2984b5d)" d="M 199.481875 457.4 
L 757.481875 457.4 
" style="fill:none;stroke:#b0b0b0;stroke-linecap:square;stroke-width:0.8;"/>
     </g>
     <g id="line2d_12">
      <g>
       <use style="stroke:#000000;stroke-width:0.8;" x="199.481875" xlink:href="#m21d7817893" y="457.4"/>
      </g>
     </g>
     <g id="text_9">
      <!-- none -->
      <defs>
       <path d="M 6.59375 0 
L 6.59375 51.859375 
L 14.5 51.859375 
L 14.5 44.484375 
Q 20.21875 53.03125 31 53.03125 
Q 35.6875 53.03125 39.625 51.34375 
Q 43.5625 49.65625 45.515625 46.921875 
Q 47.46875 44.1875 48.25 40.4375 
Q 48.734375 37.984375 48.734375 31.890625 
L 48.734375 0 
L 39.9375 0 
L 39.9375 31.546875 
Q 39.9375 36.921875 38.90625 39.578125 
Q 37.890625 42.234375 35.28125 43.8125 
Q 32.671875 45.40625 29.15625 45.40625 
Q 23.53125 45.40625 19.453125 41.84375 
Q 15.375 38.28125 15.375 28.328125 
L 15.375 0 
z
" id="ArialMT-110"/>
      </defs>
      <g transform="translate(152.443125 463.842031)scale(0.18 -0.18)">
       <use xlink:href="#ArialMT-110"/>
       <use x="55.615234" xlink:href="#ArialMT-111"/>
       <use x="111.230469" xlink:href="#ArialMT-110"/>
       <use x="166.845703" xlink:href="#ArialMT-101"/>
      </g>
     </g>
    </g>
    <g id="ytick_4">
     <g id="line2d_13">
      <path clip-path="url(#pe4b2984b5d)" d="M 199.481875 397 
L 757.481875 397 
" style="fill:none;stroke:#b0b0b0;stroke-linecap:square;stroke-width:0.8;"/>
     </g>
     <g id="line2d_14">
      <g>
       <use style="stroke:#000000;stroke-width:0.8;" x="199.481875" xlink:href="#m21d7817893" y="397"/>
      </g>
     </g>
     <g id="text_10">
      <!-- irc -->
      <defs>
       <path d="M 6.640625 61.46875 
L 6.640625 71.578125 
L 15.4375 71.578125 
L 15.4375 61.46875 
z
M 6.640625 0 
L 6.640625 51.859375 
L 15.4375 51.859375 
L 15.4375 0 
z
" id="ArialMT-105"/>
      </defs>
      <g transform="translate(173.489062 403.442031)scale(0.18 -0.18)">
       <use xlink:href="#ArialMT-105"/>
       <use x="22.216797" xlink:href="#ArialMT-114"/>
       <use x="55.517578" xlink:href="#ArialMT-99"/>
      </g>
     </g>
    </g>
    <g id="ytick_5">
     <g id="line2d_15">
      <path clip-path="url(#pe4b2984b5d)" d="M 199.481875 336.6 
L 757.481875 336.6 
" style="fill:none;stroke:#b0b0b0;stroke-linecap:square;stroke-width:0.8;"/>
     </g>
     <g id="line2d_16">
      <g>
       <use style="stroke:#000000;stroke-width:0.8;" x="199.481875" xlink:href="#m21d7817893" y="336.6"/>
      </g>
     </g>
     <g id="text_11">
      <!-- other -->
      <defs>
       <path d="M 6.59375 0 
L 6.59375 71.578125 
L 15.375 71.578125 
L 15.375 45.90625 
Q 21.53125 53.03125 30.90625 53.03125 
Q 36.671875 53.03125 40.921875 50.75 
Q 45.171875 48.484375 47 44.484375 
Q 48.828125 40.484375 48.828125 32.859375 
L 48.828125 0 
L 40.046875 0 
L 40.046875 32.859375 
Q 40.046875 39.453125 37.1875 42.453125 
Q 34.328125 45.453125 29.109375 45.453125 
Q 25.203125 45.453125 21.75 43.421875 
Q 18.3125 41.40625 16.84375 37.9375 
Q 15.375 34.46875 15.375 28.375 
L 15.375 0 
z
" id="ArialMT-104"/>
      </defs>
      <g transform="translate(151.45875 343.042031)scale(0.18 -0.18)">
       <use xlink:href="#ArialMT-111"/>
       <use x="55.615234" xlink:href="#ArialMT-116"/>
       <use x="83.398438" xlink:href="#ArialMT-104"/>
       <use x="139.013672" xlink:href="#ArialMT-101"/>
       <use x="194.628906" xlink:href="#ArialMT-114"/>
      </g>
     </g>
    </g>
    <g id="ytick_6">
     <g id="line2d_17">
      <path clip-path="url(#pe4b2984b5d)" d="M 199.481875 276.2 
L 757.481875 276.2 
" style="fill:none;stroke:#b0b0b0;stroke-linecap:square;stroke-width:0.8;"/>
     </g>
     <g id="line2d_18">
      <g>
       <use style="stroke:#000000;stroke-width:0.8;" x="199.481875" xlink:href="#m21d7817893" y="276.2"/>
      </g>
     </g>
     <g id="text_12">
      <!--  i follow twitter emacs -->
      <defs>
       <path d="M 8.6875 0 
L 8.6875 45.015625 
L 0.921875 45.015625 
L 0.921875 51.859375 
L 8.6875 51.859375 
L 8.6875 57.375 
Q 8.6875 62.59375 9.625 65.140625 
Q 10.890625 68.5625 14.078125 70.671875 
Q 17.28125 72.796875 23.046875 72.796875 
Q 26.765625 72.796875 31.25 71.921875 
L 29.9375 64.265625 
Q 27.203125 64.75 24.75 64.75 
Q 20.75 64.75 19.09375 63.03125 
Q 17.4375 61.328125 17.4375 56.640625 
L 17.4375 51.859375 
L 27.546875 51.859375 
L 27.546875 45.015625 
L 17.4375 45.015625 
L 17.4375 0 
z
" id="ArialMT-102"/>
       <path d="M 16.15625 0 
L 0.296875 51.859375 
L 9.375 51.859375 
L 17.625 21.921875 
L 20.703125 10.796875 
Q 20.90625 11.625 23.390625 21.484375 
L 31.640625 51.859375 
L 40.671875 51.859375 
L 48.4375 21.78125 
L 51.03125 11.859375 
L 54 21.875 
L 62.890625 51.859375 
L 71.4375 51.859375 
L 55.21875 0 
L 46.09375 0 
L 37.84375 31.0625 
L 35.84375 39.890625 
L 25.34375 0 
z
" id="ArialMT-119"/>
      </defs>
      <g transform="translate(21.445312 274.41125)scale(0.18 -0.18)">
       <use xlink:href="#ArialMT-32"/>
       <use x="27.783203" xlink:href="#ArialMT-105"/>
       <use x="50" xlink:href="#ArialMT-32"/>
       <use x="77.783203" xlink:href="#ArialMT-102"/>
       <use x="105.566406" xlink:href="#ArialMT-111"/>
       <use x="161.181641" xlink:href="#ArialMT-108"/>
       <use x="183.398438" xlink:href="#ArialMT-108"/>
       <use x="205.615234" xlink:href="#ArialMT-111"/>
       <use x="261.230469" xlink:href="#ArialMT-119"/>
       <use x="333.447266" xlink:href="#ArialMT-32"/>
       <use x="361.230469" xlink:href="#ArialMT-116"/>
       <use x="389.013672" xlink:href="#ArialMT-119"/>
       <use x="461.230469" xlink:href="#ArialMT-105"/>
       <use x="483.447266" xlink:href="#ArialMT-116"/>
       <use x="511.230469" xlink:href="#ArialMT-116"/>
       <use x="539.013672" xlink:href="#ArialMT-101"/>
       <use x="594.628906" xlink:href="#ArialMT-114"/>
       <use x="627.929688" xlink:href="#ArialMT-32"/>
       <use x="655.712891" xlink:href="#ArialMT-101"/>
       <use x="711.328125" xlink:href="#ArialMT-109"/>
       <use x="794.628906" xlink:href="#ArialMT-97"/>
       <use x="850.244141" xlink:href="#ArialMT-99"/>
       <use x="900.244141" xlink:href="#ArialMT-115"/>
      </g>
      <!--  related accounts -->
      <defs>
       <path d="M 40.234375 0 
L 40.234375 6.546875 
Q 35.296875 -1.171875 25.734375 -1.171875 
Q 19.53125 -1.171875 14.328125 2.25 
Q 9.125 5.671875 6.265625 11.796875 
Q 3.421875 17.921875 3.421875 25.875 
Q 3.421875 33.640625 6 39.96875 
Q 8.59375 46.296875 13.765625 49.65625 
Q 18.953125 53.03125 25.34375 53.03125 
Q 30.03125 53.03125 33.6875 51.046875 
Q 37.359375 49.078125 39.65625 45.90625 
L 39.65625 71.578125 
L 48.390625 71.578125 
L 48.390625 0 
z
M 12.453125 25.875 
Q 12.453125 15.921875 16.640625 10.984375 
Q 20.84375 6.0625 26.5625 6.0625 
Q 32.328125 6.0625 36.34375 10.765625 
Q 40.375 15.484375 40.375 25.140625 
Q 40.375 35.796875 36.265625 40.765625 
Q 32.171875 45.75 26.171875 45.75 
Q 20.3125 45.75 16.375 40.96875 
Q 12.453125 36.1875 12.453125 25.875 
z
" id="ArialMT-100"/>
      </defs>
      <g transform="translate(55.409063 293.449625)scale(0.18 -0.18)">
       <use xlink:href="#ArialMT-32"/>
       <use x="27.783203" xlink:href="#ArialMT-114"/>
       <use x="61.083984" xlink:href="#ArialMT-101"/>
       <use x="116.699219" xlink:href="#ArialMT-108"/>
       <use x="138.916016" xlink:href="#ArialMT-97"/>
       <use x="194.53125" xlink:href="#ArialMT-116"/>
       <use x="222.314453" xlink:href="#ArialMT-101"/>
       <use x="277.929688" xlink:href="#ArialMT-100"/>
       <use x="333.544922" xlink:href="#ArialMT-32"/>
       <use x="361.328125" xlink:href="#ArialMT-97"/>
       <use x="416.943359" xlink:href="#ArialMT-99"/>
       <use x="466.943359" xlink:href="#ArialMT-99"/>
       <use x="516.943359" xlink:href="#ArialMT-111"/>
       <use x="572.558594" xlink:href="#ArialMT-117"/>
       <use x="628.173828" xlink:href="#ArialMT-110"/>
       <use x="683.789062" xlink:href="#ArialMT-116"/>
       <use x="711.572266" xlink:href="#ArialMT-115"/>
      </g>
     </g>
    </g>
    <g id="ytick_7">
     <g id="line2d_19">
      <path clip-path="url(#pe4b2984b5d)" d="M 199.481875 215.8 
L 757.481875 215.8 
" style="fill:none;stroke:#b0b0b0;stroke-linecap:square;stroke-width:0.8;"/>
     </g>
     <g id="line2d_20">
      <g>
       <use style="stroke:#000000;stroke-width:0.8;" x="199.481875" xlink:href="#m21d7817893" y="215.8"/>
      </g>
     </g>
     <g id="text_13">
      <!-- emacs mailing list -->
      <g transform="translate(50.447812 222.242031)scale(0.18 -0.18)">
       <use xlink:href="#ArialMT-101"/>
       <use x="55.615234" xlink:href="#ArialMT-109"/>
       <use x="138.916016" xlink:href="#ArialMT-97"/>
       <use x="194.53125" xlink:href="#ArialMT-99"/>
       <use x="244.53125" xlink:href="#ArialMT-115"/>
       <use x="294.53125" xlink:href="#ArialMT-32"/>
       <use x="322.314453" xlink:href="#ArialMT-109"/>
       <use x="405.615234" xlink:href="#ArialMT-97"/>
       <use x="461.230469" xlink:href="#ArialMT-105"/>
       <use x="483.447266" xlink:href="#ArialMT-108"/>
       <use x="505.664062" xlink:href="#ArialMT-105"/>
       <use x="527.880859" xlink:href="#ArialMT-110"/>
       <use x="583.496094" xlink:href="#ArialMT-103"/>
       <use x="639.111328" xlink:href="#ArialMT-32"/>
       <use x="666.894531" xlink:href="#ArialMT-108"/>
       <use x="689.111328" xlink:href="#ArialMT-105"/>
       <use x="711.328125" xlink:href="#ArialMT-115"/>
       <use x="761.328125" xlink:href="#ArialMT-116"/>
      </g>
     </g>
    </g>
    <g id="ytick_8">
     <g id="line2d_21">
      <path clip-path="url(#pe4b2984b5d)" d="M 199.481875 155.4 
L 757.481875 155.4 
" style="fill:none;stroke:#b0b0b0;stroke-linecap:square;stroke-width:0.8;"/>
     </g>
     <g id="line2d_22">
      <g>
       <use style="stroke:#000000;stroke-width:0.8;" x="199.481875" xlink:href="#m21d7817893" y="155.4"/>
      </g>
     </g>
     <g id="text_14">
      <!-- emacs stackexchange -->
      <defs>
       <path d="M 6.640625 0 
L 6.640625 71.578125 
L 15.4375 71.578125 
L 15.4375 30.765625 
L 36.234375 51.859375 
L 47.609375 51.859375 
L 27.78125 32.625 
L 49.609375 0 
L 38.765625 0 
L 21.625 26.515625 
L 15.4375 20.5625 
L 15.4375 0 
z
" id="ArialMT-107"/>
       <path d="M 0.734375 0 
L 19.671875 26.953125 
L 2.15625 51.859375 
L 13.140625 51.859375 
L 21.09375 39.703125 
Q 23.34375 36.234375 24.703125 33.890625 
Q 26.859375 37.109375 28.65625 39.59375 
L 37.40625 51.859375 
L 47.90625 51.859375 
L 29.984375 27.4375 
L 49.265625 0 
L 38.484375 0 
L 27.828125 16.109375 
L 25 20.453125 
L 11.375 0 
z
" id="ArialMT-120"/>
      </defs>
      <g transform="translate(14.4 161.842031)scale(0.18 -0.18)">
       <use xlink:href="#ArialMT-101"/>
       <use x="55.615234" xlink:href="#ArialMT-109"/>
       <use x="138.916016" xlink:href="#ArialMT-97"/>
       <use x="194.53125" xlink:href="#ArialMT-99"/>
       <use x="244.53125" xlink:href="#ArialMT-115"/>
       <use x="294.53125" xlink:href="#ArialMT-32"/>
       <use x="322.314453" xlink:href="#ArialMT-115"/>
       <use x="372.314453" xlink:href="#ArialMT-116"/>
       <use x="400.097656" xlink:href="#ArialMT-97"/>
       <use x="455.712891" xlink:href="#ArialMT-99"/>
       <use x="505.712891" xlink:href="#ArialMT-107"/>
       <use x="555.712891" xlink:href="#ArialMT-101"/>
       <use x="611.328125" xlink:href="#ArialMT-120"/>
       <use x="661.328125" xlink:href="#ArialMT-99"/>
       <use x="711.328125" xlink:href="#ArialMT-104"/>
       <use x="766.943359" xlink:href="#ArialMT-97"/>
       <use x="822.558594" xlink:href="#ArialMT-110"/>
       <use x="878.173828" xlink:href="#ArialMT-103"/>
       <use x="933.789062" xlink:href="#ArialMT-101"/>
      </g>
     </g>
    </g>
    <g id="ytick_9">
     <g id="line2d_23">
      <path clip-path="url(#pe4b2984b5d)" d="M 199.481875 95 
L 757.481875 95 
" style="fill:none;stroke:#b0b0b0;stroke-linecap:square;stroke-width:0.8;"/>
     </g>
     <g id="line2d_24">
      <g>
       <use style="stroke:#000000;stroke-width:0.8;" x="199.481875" xlink:href="#m21d7817893" y="95"/>
      </g>
     </g>
     <g id="text_15">
      <!-- r/emacs -->
      <defs>
       <path d="M 0 -1.21875 
L 20.75 72.796875 
L 27.78125 72.796875 
L 7.078125 -1.21875 
z
" id="ArialMT-47"/>
      </defs>
      <g transform="translate(128.475 101.442031)scale(0.18 -0.18)">
       <use xlink:href="#ArialMT-114"/>
       <use x="33.300781" xlink:href="#ArialMT-47"/>
       <use x="61.083984" xlink:href="#ArialMT-101"/>
       <use x="116.699219" xlink:href="#ArialMT-109"/>
       <use x="200" xlink:href="#ArialMT-97"/>
       <use x="255.615234" xlink:href="#ArialMT-99"/>
       <use x="305.615234" xlink:href="#ArialMT-115"/>
      </g>
     </g>
    </g>
   </g>
   <g id="patch_12">
    <path d="M 199.481875 608.4 
L 199.481875 64.8 
" style="fill:none;stroke:#000000;stroke-linecap:square;stroke-linejoin:miter;stroke-width:0.8;"/>
   </g>
   <g id="patch_13">
    <path d="M 199.481875 608.4 
L 757.481875 608.4 
" style="fill:none;stroke:#000000;stroke-linecap:square;stroke-linejoin:miter;stroke-width:0.8;"/>
   </g>
   <g id="text_16">
    <!-- 4.2% -->
    <defs>
     <path d="M 9.078125 0 
L 9.078125 10.015625 
L 19.09375 10.015625 
L 19.09375 0 
z
" id="ArialMT-46"/>
     <path d="M 5.8125 54.390625 
Q 5.8125 62.0625 9.671875 67.421875 
Q 13.53125 72.796875 20.84375 72.796875 
Q 27.59375 72.796875 32 67.984375 
Q 36.421875 63.1875 36.421875 53.859375 
Q 36.421875 44.78125 31.953125 39.875 
Q 27.484375 34.96875 20.953125 34.96875 
Q 14.453125 34.96875 10.125 39.796875 
Q 5.8125 44.625 5.8125 54.390625 
z
M 21.09375 66.75 
Q 17.828125 66.75 15.65625 63.90625 
Q 13.484375 61.078125 13.484375 53.515625 
Q 13.484375 46.625 15.671875 43.8125 
Q 17.875 41.015625 21.09375 41.015625 
Q 24.421875 41.015625 26.59375 43.84375 
Q 28.765625 46.6875 28.765625 54.203125 
Q 28.765625 61.140625 26.5625 63.9375 
Q 24.359375 66.75 21.09375 66.75 
z
M 21.140625 -2.640625 
L 60.296875 72.796875 
L 67.4375 72.796875 
L 28.421875 -2.640625 
z
M 52.09375 16.796875 
Q 52.09375 24.515625 55.953125 29.859375 
Q 59.8125 35.203125 67.1875 35.203125 
Q 73.921875 35.203125 78.34375 30.390625 
Q 82.765625 25.59375 82.765625 16.265625 
Q 82.765625 7.171875 78.296875 2.265625 
Q 73.828125 -2.640625 67.234375 -2.640625 
Q 60.75 -2.640625 56.421875 2.21875 
Q 52.09375 7.078125 52.09375 16.796875 
z
M 67.4375 29.15625 
Q 64.109375 29.15625 61.9375 26.3125 
Q 59.765625 23.484375 59.765625 15.921875 
Q 59.765625 9.078125 61.953125 6.25 
Q 64.15625 3.421875 67.390625 3.421875 
Q 70.75 3.421875 72.921875 6.25 
Q 75.09375 9.078125 75.09375 16.609375 
Q 75.09375 23.53125 72.890625 26.34375 
Q 70.703125 29.15625 67.4375 29.15625 
z
" id="ArialMT-37"/>
    </defs>
    <g transform="translate(234.851497 578.2)scale(0.1 -0.1)">
     <use xlink:href="#ArialMT-52"/>
     <use x="55.615234" xlink:href="#ArialMT-46"/>
     <use x="83.398438" xlink:href="#ArialMT-50"/>
     <use x="139.013672" xlink:href="#ArialMT-37"/>
    </g>
   </g>
   <g id="text_17">
    <!-- 4.7% -->
    <defs>
     <path d="M 4.734375 62.203125 
L 4.734375 70.65625 
L 51.078125 70.65625 
L 51.078125 63.8125 
Q 44.234375 56.546875 37.515625 44.484375 
Q 30.8125 32.421875 27.15625 19.671875 
Q 24.515625 10.6875 23.78125 0 
L 14.75 0 
Q 14.890625 8.453125 18.0625 20.40625 
Q 21.234375 32.375 27.171875 43.484375 
Q 33.109375 54.59375 39.796875 62.203125 
z
" id="ArialMT-55"/>
    </defs>
    <g transform="translate(238.29021 517.8)scale(0.1 -0.1)">
     <use xlink:href="#ArialMT-52"/>
     <use x="55.615234" xlink:href="#ArialMT-46"/>
     <use x="83.398438" xlink:href="#ArialMT-55"/>
     <use x="139.013672" xlink:href="#ArialMT-37"/>
    </g>
   </g>
   <g id="text_18">
    <!-- 5.7% -->
    <g transform="translate(245.757131 457.4)scale(0.1 -0.1)">
     <use xlink:href="#ArialMT-53"/>
     <use x="55.615234" xlink:href="#ArialMT-46"/>
     <use x="83.398438" xlink:href="#ArialMT-55"/>
     <use x="139.013672" xlink:href="#ArialMT-37"/>
    </g>
   </g>
   <g id="text_19">
    <!-- 12.3% -->
    <g transform="translate(292.916627 397)scale(0.1 -0.1)">
     <use xlink:href="#ArialMT-49"/>
     <use x="55.615234" xlink:href="#ArialMT-50"/>
     <use x="111.230469" xlink:href="#ArialMT-46"/>
     <use x="139.013672" xlink:href="#ArialMT-51"/>
     <use x="194.628906" xlink:href="#ArialMT-37"/>
    </g>
   </g>
   <g id="text_20">
    <!-- 12.4% -->
    <g transform="translate(293.309622 336.6)scale(0.1 -0.1)">
     <use xlink:href="#ArialMT-49"/>
     <use x="55.615234" xlink:href="#ArialMT-50"/>
     <use x="111.230469" xlink:href="#ArialMT-46"/>
     <use x="139.013672" xlink:href="#ArialMT-52"/>
     <use x="194.628906" xlink:href="#ArialMT-37"/>
    </g>
   </g>
   <g id="text_21">
    <!-- 17.5% -->
    <g transform="translate(329.956481 276.2)scale(0.1 -0.1)">
     <use xlink:href="#ArialMT-49"/>
     <use x="55.615234" xlink:href="#ArialMT-55"/>
     <use x="111.230469" xlink:href="#ArialMT-46"/>
     <use x="139.013672" xlink:href="#ArialMT-53"/>
     <use x="194.628906" xlink:href="#ArialMT-37"/>
    </g>
   </g>
   <g id="text_22">
    <!-- 24.4% -->
    <g transform="translate(379.965196 215.8)scale(0.1 -0.1)">
     <use xlink:href="#ArialMT-50"/>
     <use x="55.615234" xlink:href="#ArialMT-52"/>
     <use x="111.230469" xlink:href="#ArialMT-46"/>
     <use x="139.013672" xlink:href="#ArialMT-52"/>
     <use x="194.628906" xlink:href="#ArialMT-37"/>
    </g>
   </g>
   <g id="text_23">
    <!-- 44.8% -->
    <defs>
     <path d="M 17.671875 38.8125 
Q 12.203125 40.828125 9.5625 44.53125 
Q 6.9375 48.25 6.9375 53.421875 
Q 6.9375 61.234375 12.546875 66.546875 
Q 18.171875 71.875 27.484375 71.875 
Q 36.859375 71.875 42.578125 66.421875 
Q 48.296875 60.984375 48.296875 53.171875 
Q 48.296875 48.1875 45.671875 44.5 
Q 43.0625 40.828125 37.75 38.8125 
Q 44.34375 36.671875 47.78125 31.875 
Q 51.21875 27.09375 51.21875 20.453125 
Q 51.21875 11.28125 44.71875 5.03125 
Q 38.234375 -1.21875 27.640625 -1.21875 
Q 17.046875 -1.21875 10.546875 5.046875 
Q 4.046875 11.328125 4.046875 20.703125 
Q 4.046875 27.6875 7.59375 32.390625 
Q 11.140625 37.109375 17.671875 38.8125 
z
M 15.921875 53.71875 
Q 15.921875 48.640625 19.1875 45.40625 
Q 22.46875 42.1875 27.6875 42.1875 
Q 32.765625 42.1875 36.015625 45.375 
Q 39.265625 48.578125 39.265625 53.21875 
Q 39.265625 58.0625 35.90625 61.359375 
Q 32.5625 64.65625 27.59375 64.65625 
Q 22.5625 64.65625 19.234375 61.421875 
Q 15.921875 58.203125 15.921875 53.71875 
z
M 13.09375 20.65625 
Q 13.09375 16.890625 14.875 13.375 
Q 16.65625 9.859375 20.171875 7.921875 
Q 23.6875 6 27.734375 6 
Q 34.03125 6 38.125 10.046875 
Q 42.234375 14.109375 42.234375 20.359375 
Q 42.234375 26.703125 38.015625 30.859375 
Q 33.796875 35.015625 27.4375 35.015625 
Q 21.234375 35.015625 17.15625 30.90625 
Q 13.09375 26.8125 13.09375 20.65625 
z
" id="ArialMT-56"/>
    </defs>
    <g transform="translate(526.454381 155.4)scale(0.1 -0.1)">
     <use xlink:href="#ArialMT-52"/>
     <use x="55.615234" xlink:href="#ArialMT-52"/>
     <use x="111.230469" xlink:href="#ArialMT-46"/>
     <use x="139.013672" xlink:href="#ArialMT-56"/>
     <use x="194.628906" xlink:href="#ArialMT-37"/>
    </g>
   </g>
   <g id="text_24">
    <!-- 73.9% -->
    <defs>
     <path d="M 5.46875 16.546875 
L 13.921875 17.328125 
Q 14.984375 11.375 18.015625 8.6875 
Q 21.046875 6 25.78125 6 
Q 29.828125 6 32.875 7.859375 
Q 35.9375 9.71875 37.890625 12.8125 
Q 39.84375 15.921875 41.15625 21.1875 
Q 42.484375 26.46875 42.484375 31.9375 
Q 42.484375 32.515625 42.4375 33.6875 
Q 39.796875 29.5 35.234375 26.875 
Q 30.671875 24.265625 25.34375 24.265625 
Q 16.453125 24.265625 10.296875 30.703125 
Q 4.15625 37.15625 4.15625 47.703125 
Q 4.15625 58.59375 10.578125 65.234375 
Q 17 71.875 26.65625 71.875 
Q 33.640625 71.875 39.421875 68.109375 
Q 45.21875 64.359375 48.21875 57.390625 
Q 51.21875 50.4375 51.21875 37.25 
Q 51.21875 23.53125 48.234375 15.40625 
Q 45.265625 7.28125 39.375 3.03125 
Q 33.5 -1.21875 25.59375 -1.21875 
Q 17.1875 -1.21875 11.859375 3.4375 
Q 6.546875 8.109375 5.46875 16.546875 
z
M 41.453125 48.140625 
Q 41.453125 55.71875 37.421875 60.15625 
Q 33.40625 64.59375 27.734375 64.59375 
Q 21.875 64.59375 17.53125 59.8125 
Q 13.1875 55.03125 13.1875 47.40625 
Q 13.1875 40.578125 17.3125 36.296875 
Q 21.4375 32.03125 27.484375 32.03125 
Q 33.59375 32.03125 37.515625 36.296875 
Q 41.453125 40.578125 41.453125 48.140625 
z
" id="ArialMT-57"/>
    </defs>
    <g transform="translate(735.822894 95)scale(0.1 -0.1)">
     <use xlink:href="#ArialMT-55"/>
     <use x="55.615234" xlink:href="#ArialMT-51"/>
     <use x="111.230469" xlink:href="#ArialMT-46"/>
     <use x="139.013672" xlink:href="#ArialMT-57"/>
     <use x="194.628906" xlink:href="#ArialMT-37"/>
    </g>
   </g>
  </g>
  <g id="text_25">
   <!-- What Emacs community forums have you visited in the past year? -->
   <defs>
    <path d="M 20.21875 0 
L 1.21875 71.578125 
L 10.9375 71.578125 
L 21.828125 24.65625 
Q 23.578125 17.28125 24.859375 10.015625 
Q 27.59375 21.484375 28.078125 23.25 
L 41.703125 71.578125 
L 53.125 71.578125 
L 63.375 35.359375 
Q 67.234375 21.875 68.953125 10.015625 
Q 70.3125 16.796875 72.515625 25.59375 
L 83.734375 71.578125 
L 93.265625 71.578125 
L 73.640625 0 
L 64.5 0 
L 49.421875 54.546875 
Q 47.515625 61.375 47.171875 62.9375 
Q 46.046875 58.015625 45.0625 54.546875 
L 29.890625 0 
z
" id="ArialMT-87"/>
    <path d="M 7.90625 0 
L 7.90625 71.578125 
L 59.671875 71.578125 
L 59.671875 63.140625 
L 17.390625 63.140625 
L 17.390625 41.21875 
L 56.984375 41.21875 
L 56.984375 32.8125 
L 17.390625 32.8125 
L 17.390625 8.453125 
L 61.328125 8.453125 
L 61.328125 0 
z
" id="ArialMT-69"/>
    <path d="M 6.203125 -19.96875 
L 5.21875 -11.71875 
Q 8.109375 -12.5 10.25 -12.5 
Q 13.1875 -12.5 14.9375 -11.515625 
Q 16.703125 -10.546875 17.828125 -8.796875 
Q 18.65625 -7.46875 20.515625 -2.25 
Q 20.75 -1.515625 21.296875 -0.09375 
L 1.609375 51.859375 
L 11.078125 51.859375 
L 21.875 21.828125 
Q 23.96875 16.109375 25.640625 9.8125 
Q 27.15625 15.875 29.25 21.625 
L 40.328125 51.859375 
L 49.125 51.859375 
L 29.390625 -0.875 
Q 26.21875 -9.421875 24.46875 -12.640625 
Q 22.125 -17 19.09375 -19.015625 
Q 16.0625 -21.046875 11.859375 -21.046875 
Q 9.328125 -21.046875 6.203125 -19.96875 
z
" id="ArialMT-121"/>
    <path d="M 21 0 
L 1.265625 51.859375 
L 10.546875 51.859375 
L 21.6875 20.796875 
Q 23.484375 15.765625 25 10.359375 
Q 26.171875 14.453125 28.265625 20.21875 
L 39.796875 51.859375 
L 48.828125 51.859375 
L 29.203125 0 
z
" id="ArialMT-118"/>
    <path d="M 23.046875 17.625 
Q 23 19.390625 23 20.265625 
Q 23 25.4375 24.46875 29.203125 
Q 25.53125 32.03125 27.9375 34.90625 
Q 29.6875 37.015625 34.25 41.03125 
Q 38.8125 45.0625 40.171875 47.453125 
Q 41.546875 49.859375 41.546875 52.6875 
Q 41.546875 57.8125 37.546875 61.6875 
Q 33.546875 65.578125 27.734375 65.578125 
Q 22.125 65.578125 18.359375 62.0625 
Q 14.59375 58.546875 13.421875 51.078125 
L 4.390625 52.15625 
Q 5.609375 62.15625 11.640625 67.46875 
Q 17.671875 72.796875 27.59375 72.796875 
Q 38.09375 72.796875 44.34375 67.078125 
Q 50.59375 61.375 50.59375 53.265625 
Q 50.59375 48.578125 48.390625 44.625 
Q 46.1875 40.671875 39.796875 35.015625 
Q 35.5 31.203125 34.171875 29.390625 
Q 32.859375 27.59375 32.21875 25.25 
Q 31.59375 22.90625 31.5 17.625 
z
M 22.515625 0 
L 22.515625 10.015625 
L 32.515625 10.015625 
L 32.515625 0 
z
" id="ArialMT-63"/>
   </defs>
   <g transform="translate(177.155312 28.959375)scale(0.2 -0.2)">
    <use xlink:href="#ArialMT-87"/>
    <use x="94.384766" xlink:href="#ArialMT-104"/>
    <use x="150" xlink:href="#ArialMT-97"/>
    <use x="205.615234" xlink:href="#ArialMT-116"/>
    <use x="233.398438" xlink:href="#ArialMT-32"/>
    <use x="261.181641" xlink:href="#ArialMT-69"/>
    <use x="327.880859" xlink:href="#ArialMT-109"/>
    <use x="411.181641" xlink:href="#ArialMT-97"/>
    <use x="466.796875" xlink:href="#ArialMT-99"/>
    <use x="516.796875" xlink:href="#ArialMT-115"/>
    <use x="566.796875" xlink:href="#ArialMT-32"/>
    <use x="594.580078" xlink:href="#ArialMT-99"/>
    <use x="644.580078" xlink:href="#ArialMT-111"/>
    <use x="700.195312" xlink:href="#ArialMT-109"/>
    <use x="783.496094" xlink:href="#ArialMT-109"/>
    <use x="866.796875" xlink:href="#ArialMT-117"/>
    <use x="922.412109" xlink:href="#ArialMT-110"/>
    <use x="978.027344" xlink:href="#ArialMT-105"/>
    <use x="1000.244141" xlink:href="#ArialMT-116"/>
    <use x="1028.027344" xlink:href="#ArialMT-121"/>
    <use x="1078.027344" xlink:href="#ArialMT-32"/>
    <use x="1105.810547" xlink:href="#ArialMT-102"/>
    <use x="1133.59375" xlink:href="#ArialMT-111"/>
    <use x="1189.208984" xlink:href="#ArialMT-114"/>
    <use x="1222.509766" xlink:href="#ArialMT-117"/>
    <use x="1278.125" xlink:href="#ArialMT-109"/>
    <use x="1361.425781" xlink:href="#ArialMT-115"/>
    <use x="1411.425781" xlink:href="#ArialMT-32"/>
    <use x="1439.208984" xlink:href="#ArialMT-104"/>
    <use x="1494.824219" xlink:href="#ArialMT-97"/>
    <use x="1550.439453" xlink:href="#ArialMT-118"/>
    <use x="1600.439453" xlink:href="#ArialMT-101"/>
    <use x="1656.054688" xlink:href="#ArialMT-32"/>
    <use x="1683.837891" xlink:href="#ArialMT-121"/>
    <use x="1733.837891" xlink:href="#ArialMT-111"/>
    <use x="1789.453125" xlink:href="#ArialMT-117"/>
    <use x="1845.068359" xlink:href="#ArialMT-32"/>
    <use x="1872.851562" xlink:href="#ArialMT-118"/>
    <use x="1922.851562" xlink:href="#ArialMT-105"/>
    <use x="1945.068359" xlink:href="#ArialMT-115"/>
    <use x="1995.068359" xlink:href="#ArialMT-105"/>
    <use x="2017.285156" xlink:href="#ArialMT-116"/>
    <use x="2045.068359" xlink:href="#ArialMT-101"/>
    <use x="2100.683594" xlink:href="#ArialMT-100"/>
    <use x="2156.298828" xlink:href="#ArialMT-32"/>
    <use x="2184.082031" xlink:href="#ArialMT-105"/>
    <use x="2206.298828" xlink:href="#ArialMT-110"/>
    <use x="2261.914062" xlink:href="#ArialMT-32"/>
    <use x="2289.697266" xlink:href="#ArialMT-116"/>
    <use x="2317.480469" xlink:href="#ArialMT-104"/>
    <use x="2373.095703" xlink:href="#ArialMT-101"/>
    <use x="2428.710938" xlink:href="#ArialMT-32"/>
    <use x="2456.494141" xlink:href="#ArialMT-112"/>
    <use x="2512.109375" xlink:href="#ArialMT-97"/>
    <use x="2567.724609" xlink:href="#ArialMT-115"/>
    <use x="2617.724609" xlink:href="#ArialMT-116"/>
    <use x="2645.507812" xlink:href="#ArialMT-32"/>
    <use x="2673.291016" xlink:href="#ArialMT-121"/>
    <use x="2723.291016" xlink:href="#ArialMT-101"/>
    <use x="2778.90625" xlink:href="#ArialMT-97"/>
    <use x="2834.521484" xlink:href="#ArialMT-114"/>
    <use x="2867.822266" xlink:href="#ArialMT-63"/>
   </g>
  </g>
 </g>
 <defs>
  <clipPath id="pe4b2984b5d">
   <rect height="543.6" width="558" x="199.481875" y="64.8"/>
  </clipPath>
 </defs>
</svg>
